<svg xmlns="http://www.w3.org/2000/svg" viewBox="0 0 512 512">
  <rect width="512" height="512" rx="96" ry="96" fill="#003d7c"/>
  <rect x="96" y="156" width="320" height="208" rx="36" ry="36" fill="#ffffff"/>
  <rect x="116" y="180" width="84" height="64" rx="10" fill="#003d7c"/>
  <rect x="218" y="180" width="56" height="64" rx="6" fill="#003d7c"/>
  <rect x="296" y="180" width="56" height="64" rx="6" fill="#003d7c"/>
  <rect x="374" y="180" width="22" height="64" rx="4" fill="#003d7c"/>
  <rect x="96" y="296" width="320" height="14" fill="#ef7c00"/>
  <rect x="218" y="252" width="60" height="106" rx="6" fill="#003d7c"/>
  <circle cx="296" cy="338" r="4" fill="#ef7c00"/>
  <circle cx="160" cy="386" r="42" fill="#1a2433"/>
  <circle cx="160" cy="386" r="22" fill="#ffffff"/>
  <circle cx="160" cy="386" r="10" fill="#1a2433"/>
  <circle cx="352" cy="386" r="42" fill="#1a2433"/>
  <circle cx="352" cy="386" r="22" fill="#ffffff"/>
  <circle cx="352" cy="386" r="10" fill="#1a2433"/>
</svg>
